<?xml version="1.0" encoding="UTF-8" standalone="no"?>
<!-- Created with Inkscape (http://www.inkscape.org/) -->

<svg
   xmlns:dc="http://purl.org/dc/elements/1.1/"
   xmlns:cc="http://creativecommons.org/ns#"
   xmlns:rdf="http://www.w3.org/1999/02/22-rdf-syntax-ns#"
   xmlns:svg="http://www.w3.org/2000/svg"
   xmlns="http://www.w3.org/2000/svg"
   xmlns:sodipodi="http://sodipodi.sourceforge.net/DTD/sodipodi-0.dtd"
   xmlns:inkscape="http://www.inkscape.org/namespaces/inkscape"
   width="28.008709mm"
   height="11.3665mm"
   viewBox="0 0 99.243456 40.275"
   id="svg2"
   version="1.1"
   inkscape:version="0.91 r13725"
   sodipodi:docname="logo_short.svg">
  <defs
     id="defs4" />
  <sodipodi:namedview
     id="base"
     pagecolor="#ffffff"
     bordercolor="#666666"
     borderopacity="1.0"
     inkscape:pageopacity="0.0"
     inkscape:pageshadow="2"
     inkscape:zoom="1.979899"
     inkscape:cx="106.09526"
     inkscape:cy="-50.909261"
     inkscape:document-units="px"
     inkscape:current-layer="layer1"
     showgrid="false"
     inkscape:window-width="1920"
     inkscape:window-height="1017"
     inkscape:window-x="-8"
     inkscape:window-y="-8"
     inkscape:window-maximized="1"
     fit-margin-top="0"
     fit-margin-left="0"
     fit-margin-right="0"
     fit-margin-bottom="0" />
  <metadata
     id="metadata7">
    <rdf:RDF>
      <cc:Work
         rdf:about="">
        <dc:format>image/svg+xml</dc:format>
        <dc:type
           rdf:resource="http://purl.org/dc/dcmitype/StillImage" />
        <dc:title></dc:title>
      </cc:Work>
    </rdf:RDF>
  </metadata>
  <g
     inkscape:label="Layer 1"
     inkscape:groupmode="layer"
     id="layer1"
     transform="translate(-262.9316,-188.27732)">
    <path
       inkscape:connector-curvature="0"
       id="path3341"
       style="font-style:normal;font-variant:normal;font-weight:normal;font-stretch:normal;font-size:56.25px;line-height:0%;font-family:Playball;-inkscape-font-specification:Playball;letter-spacing:0px;word-spacing:0px;fill:#ffffff;fill-opacity:1;stroke:none;stroke-width:1px;stroke-linecap:butt;stroke-linejoin:miter;stroke-opacity:1"
       d="m 309.7316,189.34607 q -3.6,0 -11.86875,5.175 -8.2125,5.175 -14.7375,11.08125 1.85625,6.1875 6.69375,13.05 4.8375,6.8625 8.4375,9.225 -0.84375,0.16875 -2.7,0.16875 l -4.78125,-0.16875 q -1.575,0 -4.21875,-3.6 -2.64375,-3.65625 -4.725,-8.1 -2.025,-4.44375 -2.475,-7.03125 -3.20625,3.20625 -5.4,6.35625 -0.9,1.29375 -2.1375,5.175 -1.18125,3.825 -1.18125,5.4 0,1.51875 0.225,1.9125 l -7.25625,0 q 1.8,-6.91875 6.3,-18.7875 4.55625,-11.925 8.15625,-17.04375 0,-0.0563 0.95625,-1.35 -4.78125,0.1125 -9.73125,1.96875 -4.89375,1.8 -5.68125,4.33125 -0.0563,0.16875 -0.225,0.16875 -0.45,0 -0.45,-0.73125 0,-0.1125 0.45,-1.51875 0.45,-1.40625 1.6875,-2.925 1.29375,-1.51875 2.98125,-2.25 2.75625,-1.125 6.8625,-1.125 l 12.7125,0 q -2.8125,2.1375 -6.6375,9.45 -3.825,7.3125 -6.24375,13.3875 2.30625,-3.2625 6.13125,-7.2 3.88125,-3.99375 8.26875,-7.59375 4.44375,-3.65625 9.1125,-6.075 4.725,-2.41875 8.2125,-2.41875 3.54375,0 3.54375,0.7875 0,0.28125 -0.28125,0.28125 z" />
    <path
       inkscape:connector-curvature="0"
       id="path3343"
       style="font-style:normal;font-variant:normal;font-weight:normal;font-stretch:normal;font-size:56.25px;line-height:0%;font-family:Playball;-inkscape-font-specification:Playball;letter-spacing:0px;word-spacing:0px;fill:#ffffff;fill-opacity:1;stroke:none;stroke-width:1px;stroke-linecap:butt;stroke-linejoin:miter;stroke-opacity:1"
       d="m 321.80426,205.48982 2.8125,0.0562 0.5625,0 q -1.85625,1.51875 -4.55625,7.70625 -2.7,6.13125 -2.7,8.94375 0,1.4625 1.0125,1.4625 3.2625,0 8.325,-9.61875 0.225,-0.39375 0.39375,-0.39375 0.3375,0 0.3375,1.06875 0,1.0125 -0.5625,1.96875 -6.91875,11.64375 -11.5875,11.64375 -3.0375,0 -3.0375,-4.66875 0,-3.4875 1.18125,-6.8625 -6.4125,11.3625 -11.86875,11.3625 -3.76875,0 -3.76875,-5.175 0,-3.9375 1.6875,-7.9875 1.74375,-4.05 4.95,-6.8625 3.20625,-2.86875 7.03125,-2.86875 1.8,0 3.375,0.84375 1.575,0.7875 2.08125,2.5875 0.61875,-1.29375 1.9125,-2.25 1.29375,-0.95625 2.41875,-0.95625 z m -4.66875,3.7125 q -0.5625,-1.8 -2.64375,-1.8 -3.7125,0 -7.2,5.175 -3.4875,5.11875 -3.4875,9.16875 0,1.74375 1.35,1.74375 1.4625,0 3.43125,-1.8 1.96875,-1.85625 3.54375,-4.33125 3.4875,-5.5125 5.00625,-8.15625 z" />
    <path
       inkscape:connector-curvature="0"
       id="path3345"
       style="font-style:normal;font-variant:normal;font-weight:normal;font-stretch:normal;font-size:56.25px;line-height:0%;font-family:Playball;-inkscape-font-specification:Playball;letter-spacing:0px;word-spacing:0px;fill:#ffffff;fill-opacity:1;stroke:none;stroke-width:1px;stroke-linecap:butt;stroke-linejoin:miter;stroke-opacity:1"
       d="m 342.82242,195.75857 q -2.75625,1.9125 -6.1875,9.7875 l 5.68125,0 0.0562,0.0563 q 0,0.28125 -0.61875,1.0125 -0.61875,0.675 -1.06875,0.675 l -4.8375,0 q -4.44375,11.025 -4.44375,14.175 0,2.1375 1.35,2.1375 1.96875,0 4.6125,-3.375 0.61875,-0.73125 1.63125,-2.475 2.5875,-4.1625 2.7,-4.1625 0.3375,0 0.3375,0.9 -0.0562,2.1375 -4.66875,8.325 -1.51875,2.025 -3.65625,3.76875 -2.1375,1.74375 -3.88125,1.74375 -3.20625,0 -3.20625,-4.5 0,-3.76875 1.8,-8.6625 l 0,-0.0563 q -1.06875,1.96875 -1.85625,2.925 -0.73125,0.95625 -0.84375,0.95625 -0.225,0 -0.225,-0.675 0,-0.73125 0.73125,-2.30625 0.7875,-1.575 2.08125,-4.10625 1.35,-2.53125 2.19375,-4.6125 l -3.76875,0 q -0.16875,0 -0.16875,-0.225 0,-0.28125 0.39375,-0.9 0.45,-0.61875 0.675,-0.61875 l 4.275,0 q 4.05,-9.73125 8.2125,-9.73125 2.41875,0 2.7,-0.0563 z" />
    <path
       inkscape:connector-curvature="0"
       id="path3347"
       style="font-style:normal;font-variant:normal;font-weight:normal;font-stretch:normal;font-size:56.25px;line-height:0%;font-family:Playball;-inkscape-font-specification:Playball;letter-spacing:0px;word-spacing:0px;fill:#ffffff;fill-opacity:1;stroke:none;stroke-width:1px;stroke-linecap:butt;stroke-linejoin:miter;stroke-opacity:1"
       d="m 361.83756,213.36482 q 0.3375,0 0.3375,1.125 0,1.06875 -0.9,2.5875 -0.9,1.51875 -1.8,2.86875 -0.84375,1.35 -2.30625,3.15 -1.4625,1.8 -2.86875,2.86875 -3.54375,2.5875 -7.14375,2.5875 -3.54375,0 -5.7375,-1.8 -2.19375,-1.85625 -2.19375,-5.625 0,-5.7375 4.21875,-10.63125 4.21875,-4.89375 9.84375,-4.89375 2.53125,0 4.05,1.35 1.51875,1.29375 1.51875,3.15 0,3.15 -2.98125,5.0625 -2.98125,1.9125 -7.03125,1.9125 -2.3625,0 -3.4875,-0.61875 -1.06875,2.86875 -1.06875,5.0625 0,4.725 3.99375,4.725 2.3625,0 4.8375,-1.8 2.53125,-1.85625 4.275,-4.10625 1.8,-2.30625 4.05,-6.58125 0.225,-0.39375 0.39375,-0.39375 z m -5.9625,-4.44375 q 0,-1.63125 -1.575,-1.63125 -2.19375,0 -4.89375,2.7 -2.7,2.7 -2.7,4.3875 0,1.125 2.1375,1.125 2.1375,0 4.44375,-2.08125 2.3625,-2.08125 2.5875,-4.5 z" />
  </g>
</svg>
